<svg xmlns="http://www.w3.org/2000/svg" viewBox="0 0 1200 750" role="img" aria-label="Dwangwa and Partners website">
  <rect width="1200" height="750" fill="#F7F4F0"/>
  <rect width="1200" height="42" fill="#E8E0D6"/>
  <circle cx="22" cy="21" r="6" fill="#E05A54"/><circle cx="42" cy="21" r="6" fill="#E0B254"/><circle cx="62" cy="21" r="6" fill="#5BBF73"/>
  <rect x="100" y="12" width="420" height="18" rx="9" fill="#FFF"/>
  <rect y="42" width="1200" height="72" fill="#001D23"/>
  <rect x="48" y="58" width="18" height="40" fill="#FF6F0F"/>
  <rect x="74" y="70" width="180" height="12" rx="2" fill="#FFF"/>
  <rect x="700" y="74" width="54" height="8" rx="2" fill="#9AA8AC"/>
  <rect x="770" y="74" width="70" height="8" rx="2" fill="#9AA8AC"/>
  <rect x="856" y="74" width="54" height="8" rx="2" fill="#9AA8AC"/>
  <rect x="1030" y="58" width="122" height="36" rx="2" fill="#FF6F0F"/>
  <rect y="114" width="1200" height="270" fill="#001D23"/>
  <rect x="80" y="176" width="160" height="8" rx="2" fill="#FF6F0F"/>
  <rect x="80" y="204" width="560" height="26" rx="2" fill="#F7F4F0"/>
  <rect x="80" y="242" width="420" height="26" rx="2" fill="#F7F4F0"/>
  <rect x="80" y="288" width="360" height="10" rx="2" fill="#7A8A8E"/>
  <rect x="80" y="320" width="150" height="36" rx="2" fill="#FF6F0F"/>
  <rect x="48" y="420" width="360" height="170" rx="4" fill="#FFF"/>
  <rect x="48" y="420" width="6" height="170" fill="#FF6F0F"/>
  <rect x="76" y="448" width="180" height="12" rx="2" fill="#001D23"/>
  <rect x="76" y="476" width="280" height="8" rx="2" fill="#D4CBC0"/>
  <rect x="76" y="496" width="240" height="8" rx="2" fill="#D4CBC0"/>
  <rect x="420" y="420" width="360" height="170" rx="4" fill="#FFF"/>
  <rect x="420" y="420" width="6" height="170" fill="#FF6F0F"/>
  <rect x="448" y="448" width="180" height="12" rx="2" fill="#001D23"/>
  <rect x="448" y="476" width="280" height="8" rx="2" fill="#D4CBC0"/>
  <rect x="792" y="420" width="360" height="170" rx="4" fill="#001D23"/>
  <rect x="820" y="448" width="180" height="12" rx="2" fill="#FF6F0F"/>
  <rect x="820" y="476" width="260" height="8" rx="2" fill="#7A8A8E"/>
</svg>
