<svg xmlns="http://www.w3.org/2000/svg" viewBox="0 0 1200 750" role="img" aria-label="Point of Sale system">
  <rect width="1200" height="750" fill="#F1F5F9"/>
  <rect width="1200" height="42" fill="#E2E8F0"/>
  <circle cx="22" cy="21" r="6" fill="#E05A54"/><circle cx="42" cy="21" r="6" fill="#E0B254"/><circle cx="62" cy="21" r="6" fill="#5BBF73"/>
  <rect x="100" y="12" width="420" height="18" rx="9" fill="#FFF"/>
  <rect y="42" width="1200" height="56" fill="#0B1220"/>
  <rect x="32" y="58" width="28" height="24" rx="4" fill="#2563EB"/>
  <rect x="72" y="64" width="90" height="10" rx="2" fill="#E2E8F0"/>
  <rect x="900" y="56" width="140" height="28" rx="6" fill="#1E293B"/>
  <rect x="1056" y="56" width="112" height="28" rx="6" fill="#2563EB"/>
  <rect x="24" y="114" width="760" height="610" rx="12" fill="#FFF"/>
  <rect x="48" y="138" width="220" height="16" rx="2" fill="#0F172A"/>
  <rect x="48" y="172" width="712" height="40" rx="8" fill="#F1F5F9"/>
  <rect x="48" y="232" width="220" height="150" rx="10" fill="#F8FAFC"/>
  <rect x="68" y="252" width="120" height="10" rx="2" fill="#64748B"/>
  <rect x="68" y="276" width="80" height="18" rx="2" fill="#0F172A"/>
  <rect x="68" y="340" width="90" height="24" rx="6" fill="#2563EB"/>
  <rect x="284" y="232" width="220" height="150" rx="10" fill="#F8FAFC"/>
  <rect x="304" y="252" width="120" height="10" rx="2" fill="#64748B"/>
  <rect x="304" y="276" width="80" height="18" rx="2" fill="#0F172A"/>
  <rect x="304" y="340" width="90" height="24" rx="6" fill="#2563EB"/>
  <rect x="520" y="232" width="220" height="150" rx="10" fill="#F8FAFC"/>
  <rect x="540" y="252" width="120" height="10" rx="2" fill="#64748B"/>
  <rect x="540" y="276" width="80" height="18" rx="2" fill="#0F172A"/>
  <rect x="540" y="340" width="90" height="24" rx="6" fill="#2563EB"/>
  <rect x="48" y="402" width="220" height="150" rx="10" fill="#F8FAFC"/>
  <rect x="68" y="422" width="120" height="10" rx="2" fill="#64748B"/>
  <rect x="68" y="446" width="80" height="18" rx="2" fill="#0F172A"/>
  <rect x="68" y="510" width="90" height="24" rx="6" fill="#2563EB"/>
  <rect x="284" y="402" width="220" height="150" rx="10" fill="#F8FAFC"/>
  <rect x="304" y="422" width="120" height="10" rx="2" fill="#64748B"/>
  <rect x="304" y="446" width="80" height="18" rx="2" fill="#0F172A"/>
  <rect x="304" y="510" width="90" height="24" rx="6" fill="#2563EB"/>
  <rect x="520" y="402" width="220" height="150" rx="10" fill="#F8FAFC"/>
  <rect x="540" y="422" width="120" height="10" rx="2" fill="#64748B"/>
  <rect x="540" y="446" width="80" height="18" rx="2" fill="#0F172A"/>
  <rect x="540" y="510" width="90" height="24" rx="6" fill="#2563EB"/>
  <rect x="804" y="114" width="372" height="610" rx="12" fill="#0B1220"/>
  <rect x="828" y="138" width="140" height="12" rx="2" fill="#94A3B8"/>
  <rect x="828" y="172" width="324" height="44" rx="8" fill="#1E293B"/>
  <rect x="844" y="188" width="160" height="10" rx="2" fill="#E2E8F0"/>
  <rect x="828" y="228" width="324" height="44" rx="8" fill="#1E293B"/>
  <rect x="844" y="244" width="180" height="10" rx="2" fill="#E2E8F0"/>
  <rect x="828" y="284" width="324" height="44" rx="8" fill="#1E293B"/>
  <rect x="844" y="300" width="140" height="10" rx="2" fill="#E2E8F0"/>
  <rect x="828" y="560" width="150" height="12" rx="2" fill="#94A3B8"/>
  <rect x="1000" y="552" width="152" height="28" rx="4" fill="#FFF"/>
  <rect x="828" y="604" width="324" height="48" rx="8" fill="#2563EB"/>
</svg>
