<svg xmlns="http://www.w3.org/2000/svg" viewBox="0 0 1200 750" role="img" aria-label="Tina Beauty website">
  <rect width="1200" height="750" fill="#1A0A12"/>
  <rect width="1200" height="42" fill="#2A121C"/>
  <circle cx="22" cy="21" r="6" fill="#E05A54"/><circle cx="42" cy="21" r="6" fill="#E0B254"/><circle cx="62" cy="21" r="6" fill="#5BBF73"/>
  <rect x="100" y="12" width="420" height="18" rx="9" fill="#3A1824"/>
  <rect y="42" width="1200" height="68" fill="#12060C"/>
  <rect x="48" y="66" width="120" height="16" rx="2" fill="#DA3965"/>
  <rect x="720" y="70" width="50" height="8" rx="2" fill="#D68AAA"/>
  <rect x="788" y="70" width="50" height="8" rx="2" fill="#D68AAA"/>
  <rect x="856" y="70" width="60" height="8" rx="2" fill="#D68AAA"/>
  <rect x="1030" y="56" width="122" height="36" rx="18" fill="#DA3965"/>
  <rect y="110" width="1200" height="300" fill="#2A121C"/>
  <rect x="80" y="176" width="140" height="8" rx="2" fill="#DA3965"/>
  <rect x="80" y="204" width="420" height="36" rx="3" fill="#FDE8F0"/>
  <rect x="80" y="256" width="360" height="12" rx="2" fill="#D68AAA"/>
  <rect x="80" y="292" width="150" height="40" rx="20" fill="#DA3965"/>
  <rect x="250" y="292" width="150" height="40" rx="20" fill="none" stroke="#DA3965" stroke-width="2"/>
  <rect x="720" y="150" width="400" height="220" rx="16" fill="#3A1824"/>
  <circle cx="920" cy="260" r="70" fill="#DA3965"/>
  <rect x="48" y="446" width="360" height="160" rx="16" fill="#2A121C"/>
  <rect x="72" y="474" width="160" height="12" rx="2" fill="#FDE8F0"/>
  <rect x="72" y="502" width="260" height="8" rx="2" fill="#992C56"/>
  <rect x="420" y="446" width="360" height="160" rx="16" fill="#2A121C"/>
  <rect x="444" y="474" width="160" height="12" rx="2" fill="#FDE8F0"/>
  <rect x="444" y="502" width="260" height="8" rx="2" fill="#992C56"/>
  <rect x="792" y="446" width="360" height="160" rx="16" fill="#DA3965"/>
  <rect x="816" y="474" width="180" height="12" rx="2" fill="#FFF"/>
  <rect x="816" y="502" width="240" height="8" rx="2" fill="#FDE8F0"/>
</svg>
